<?xml version="1.0" encoding="UTF-8"?><svg id="a" xmlns="http://www.w3.org/2000/svg" viewBox="0 0 91.15 91.15"><path fill="#fff" d="m8.02,1.5h0c1.46,0,2.94.07,4.39.22,1.24.13,2.49.3,3.71.53,7.93,1.49,15.29,5.12,21.29,10.49,2.79,2.49,5.26,5.34,7.34,8.48l.83,1.25.83-1.25c2.1-3.16,4.57-6.01,7.35-8.49,5.99-5.37,13.35-8.99,21.29-10.46,2.66-.51,5.39-.76,8.11-.76,2.02,0,4.06.14,6.07.42.49,3.48.56,7,.21,10.48-.13,1.24-.3,2.49-.53,3.71-1.49,7.93-5.12,15.29-10.49,21.29-2.49,2.79-5.34,5.26-8.48,7.34l-1.25.83,1.25.83c3.16,2.1,6.01,4.57,8.49,7.35,5.37,5.99,8.99,13.35,10.46,21.29.89,4.67,1.01,9.44.34,14.18-2.02.28-4.06.43-6.09.43-1.46,0-2.94-.07-4.39-.22-1.24-.13-2.49-.3-3.71-.53-7.93-1.49-15.29-5.12-21.29-10.49-2.79-2.49-5.26-5.34-7.34-8.48l-.83-1.25-.83,1.25c-2.1,3.16-4.57,6.01-7.35,8.49-5.99,5.37-13.35,8.99-21.29,10.46-2.66.51-5.39.76-8.11.76-2.02,0-4.06-.14-6.07-.42-.49-3.48-.56-7-.21-10.48.13-1.24.3-2.49.53-3.71,1.49-7.93,5.12-15.29,10.49-21.29,2.49-2.79,5.34-5.26,8.48-7.34l1.25-.83-1.25-.83c-3.16-2.1-6.01-4.57-8.49-7.35C7.36,31.41,3.74,24.05,2.27,16.11c-.89-4.67-1.01-9.44-.34-14.18,2.02-.28,4.06-.43,6.09-.43m44.9,36.74l1.8-.55c8.58-2.64,15.58-8.86,19.22-17.05.51-1.13.95-2.31,1.31-3.49l.54-1.8-1.8.55c-5.78,1.79-10.88,5.19-14.73,9.84-2.64,3.18-4.59,6.77-5.79,10.7l-.55,1.8m-14.68,0l-.55-1.8c-2.64-8.58-8.86-15.58-17.05-19.22-1.13-.51-2.31-.95-3.49-1.31l-1.8-.54.55,1.8c1.79,5.78,5.19,10.88,9.84,14.73,3.18,2.64,6.77,4.59,10.7,5.79l1.8.55m-22.87,37.57l1.8-.55c5.78-1.79,10.88-5.19,14.73-9.84,2.64-3.18,4.59-6.77,5.79-10.7l.55-1.8-1.8.55c-8.58,2.64-15.58,8.86-19.22,17.05-.51,1.13-.95,2.31-1.31,3.49l-.54,1.8m60.44-.02l-.55-1.8c-1.79-5.78-5.19-10.88-9.84-14.73-3.18-2.64-6.77-4.59-10.7-5.79l-1.8-.55.55,1.8c2.64,8.58,8.86,15.58,17.05,19.22,1.13.51,2.31.95,3.49,1.31l1.8.54M8.02.5c-2.35,0-4.68.19-6.97.55-.8,5.11-.71,10.27.24,15.25,1.49,8.02,5.15,15.58,10.7,21.77,2.51,2.81,5.42,5.34,8.68,7.51-3.23,2.15-6.14,4.68-8.67,7.51-5.47,6.1-9.2,13.62-10.73,21.77-.23,1.25-.41,2.51-.54,3.79-.39,3.86-.27,7.71.32,11.46,2.31.36,4.64.54,6.95.54,2.79,0,5.57-.26,8.3-.78,8.02-1.49,15.58-5.15,21.77-10.7,2.81-2.51,5.34-5.42,7.51-8.68,2.15,3.23,4.68,6.14,7.51,8.67,6.1,5.47,13.62,9.2,21.77,10.73,1.25.23,2.51.41,3.79.54,1.5.15,3,.23,4.49.23,2.35,0,4.68-.19,6.97-.55.8-5.11.71-10.27-.24-15.25-1.49-8.02-5.15-15.58-10.7-21.77-2.51-2.81-5.42-5.34-8.68-7.51,3.23-2.15,6.14-4.68,8.67-7.51,5.47-6.1,9.2-13.62,10.73-21.77.23-1.25.41-2.51.54-3.79.39-3.86.27-7.71-.32-11.46-2.31-.36-4.64-.54-6.95-.54-2.79,0-5.57.26-8.3.78-8.02,1.49-15.58,5.15-21.77,10.7-2.81,2.51-5.34,5.42-7.51,8.68-2.15-3.23-4.68-6.14-7.51-8.67C31.97,6.53,24.45,2.8,16.3,1.27c-1.25-.23-2.51-.41-3.79-.54-1.5-.15-3-.23-4.49-.23h0Zm46.41,36.23c1.18-3.87,3.11-7.36,5.6-10.35,3.71-4.47,8.66-7.79,14.26-9.52-.35,1.16-.77,2.28-1.26,3.37-3.5,7.88-10.26,13.93-18.6,16.5h0Zm-17.7,0c-3.87-1.18-7.36-3.11-10.35-5.6-4.47-3.71-7.79-8.66-9.52-14.26,1.16.35,2.28.77,3.37,1.26,7.88,3.5,13.93,10.26,16.5,18.6h0Zm37.57,37.56c-1.16-.35-2.28-.77-3.37-1.26-7.88-3.5-13.93-10.26-16.5-18.6,3.87,1.18,7.36,3.11,10.35,5.6,4.47,3.71,7.79,8.66,9.52,14.26h0Zm-57.43.01c.35-1.16.77-2.28,1.26-3.37,3.5-7.88,10.26-13.93,18.6-16.5-1.18,3.87-3.11,7.36-5.6,10.35-3.71,4.47-8.66,7.79-14.26,9.52h0Z"/></svg>