<?xml version="1.0" encoding="UTF-8"?><svg id="a" xmlns="http://www.w3.org/2000/svg" viewBox="0 0 381.54 381.52"><path d="m371.63,213.76c-3.55-8.26-8-15.94-13.14-23-8.12-11.13-18-20.68-29.17-28.28-17.91-12.29-39.04-19.63-61.14-20.83-10.02-.58-20.26.14-30.5,2.2,2.04-10.14,2.76-20.38,2.19-30.47-1.19-21.79-8.32-42.97-20.79-61.2-1.92-2.79-3.95-5.5-6.12-8.16-6.53-8-14-15.02-22.18-20.97C170.44,8.2,145.73,0,120.05,0v39.99c15.29,0,29.94,4.37,42.46,12.23-12.29,17.91-19.64,39.03-20.84,61.13L50.51,22.19C4.3,55.04-12.64,115.73,9.92,167.74c3.56,8.27,8,15.96,13.15,23.01,8.12,11.13,18,20.69,29.16,28.27,17.91,12.3,39.04,19.64,61.15,20.85,10.02.57,20.26-.15,30.49-2.21-2.04,10.14-2.75,20.38-2.18,30.47,1.18,21.79,8.32,42.97,20.78,61.2,1.92,2.79,3.96,5.5,6.12,8.16,6.54,8.01,14.01,15.03,22.19,20.98,20.33,14.84,45.05,23.05,70.73,23.05v-40c-15.3,0-29.94-4.37-42.46-12.22,12.29-17.91,19.63-39.04,20.83-61.15l91.16,91.16c46.22-32.83,63.15-93.53,40.59-145.55ZM52.2,162.45c-15.57-24.88-16.5-56.94-1.08-83.06l62.28,62.28c-21.79,1.18-42.97,8.32-61.2,20.78Zm75.21,37.26c-15.4,1.42-30.98-1.65-44.78-8.93,2.84-1.53,5.74-2.85,8.71-3.98,21.44-8.24,45.56-6.91,66.11,3.95-9.51,5.07-19.71,8.01-30.04,8.96Zm63.39,99.19c-1.53-2.84-2.85-5.74-3.98-8.71-8.25-21.44-6.91-45.56,3.96-66.1,5.06,9.51,8,19.72,8.94,30.03,1.43,15.41-1.63,30.98-8.92,44.78Zm-.02-141.47c-5.07-9.52-8-19.72-8.94-30.04-1.44-15.41,1.63-30.98,8.91-44.78,1.53,2.84,2.85,5.74,3.99,8.72,8.24,21.42,6.9,45.56-3.96,66.1Zm33.33,33.33c9.51-5.07,19.71-8,30.04-8.95,15.4-1.43,30.97,1.64,44.78,8.93-2.85,1.52-5.74,2.84-8.72,3.97-21.43,8.25-45.55,6.91-66.1-3.95Zm106.33,111.36l-62.28-62.27c21.78-1.19,42.97-8.32,61.19-20.79,15.57,24.88,16.5,56.94,1.09,83.06Z" style="fill:#fff;"/></svg>