<?xml version="1.0" encoding="UTF-8"?><svg id="a" xmlns="http://www.w3.org/2000/svg" viewBox="0 0 440.13 240.09"><path d="m364.22,8.43c-8.36-3.33-16.93-5.62-25.56-6.97-13.61-2.13-27.35-1.9-40.62.63-21.35,3.97-41.49,13.72-57.97,28.5-7.49,6.68-14.22,14.43-20,23.12-5.73-8.61-12.47-16.36-20-23.09-16.25-14.57-36.27-24.5-57.98-28.58-3.33-.61-6.68-1.09-10.09-1.44-10.28-1.04-20.53-.72-30.52.86-24.88,3.88-48.15,15.55-66.31,33.71l28.28,28.28c10.81-10.81,24.26-18.08,38.67-21.38,3.97,21.36,13.71,41.49,28.49,57.97H1.69c-9.45,55.9,21.49,110.79,74.22,131.62,8.36,3.33,16.94,5.62,25.57,6.97,13.61,2.13,27.35,1.9,40.61-.63,21.36-3.97,41.49-13.72,57.98-28.5,7.48-6.68,14.22-14.43,20-23.12,5.72,8.61,12.46,16.36,20,23.09,16.24,14.57,36.27,24.5,57.97,28.58,3.33.61,6.69,1.09,10.1,1.44,10.28,1.04,20.53.72,30.52-.86,24.87-3.88,48.15-15.55,66.31-33.71l-28.28-28.28c-10.82,10.81-24.26,18.08-38.67,21.38-3.97-21.36-13.72-41.49-28.5-57.97h128.92c9.46-55.9-21.49-110.79-74.22-131.62ZM102.06,198.02c-28.6-6.58-51.93-28.6-59.49-57.97h88.07c-14.57,16.24-24.5,36.27-28.58,57.97Zm79.53-26.84c-9.88,11.9-23.07,20.74-37.98,25.35.93-3.09,2.05-6.07,3.35-8.97,9.33-20.99,27.33-37.1,49.54-43.95-3.14,10.31-8.28,19.6-14.91,27.57Zm-12.65-89.62c-11.91-9.88-20.75-23.06-25.36-37.97,3.09.93,6.07,2.05,8.98,3.35,20.98,9.32,37.1,27.33,43.94,49.54-10.31-3.15-19.6-8.29-27.56-14.92Zm89.61-12.65c9.88-11.9,23.06-20.74,37.98-25.35-.94,3.09-2.05,6.07-3.36,8.97-9.32,20.99-27.32,37.1-49.53,43.95,3.14-10.31,8.28-19.6,14.91-27.57Zm29.03,124.24c-20.99-9.32-37.1-27.33-43.94-49.54,10.3,3.15,19.6,8.29,27.56,14.92,11.9,9.88,20.75,23.06,25.35,37.97-3.09-.93-6.07-2.05-8.97-3.35Zm21.92-93.11c14.56-16.24,24.5-36.27,28.57-57.97,28.6,6.58,51.93,28.6,59.5,57.97h-88.07Z" style="fill:#000; fill-rule:evenodd;"/></svg>