<?xml version="1.0" encoding="UTF-8"?><svg id="a" xmlns="http://www.w3.org/2000/svg" viewBox="0 0 165.27 165.27"><path d="m49.04,75.12H.63c-3.55,20.99,8.07,41.6,27.87,49.42,3.14,1.25,6.36,2.11,9.6,2.62-.59-3.75-.71-7.6-.32-11.46.13-1.28.31-2.54.54-3.79-10.74-2.47-19.5-10.74-22.34-21.77h33.07c2.53-2.83,5.44-5.36,8.67-7.51-3.26-2.17-6.17-4.7-8.68-7.51Zm103.02,39.38l-10.62-10.62c-4.06,4.06-9.11,6.79-14.52,8.03.95,4.98,1.04,10.14.24,15.25,9.34-1.46,18.08-5.84,24.9-12.66Zm-15.3-73.78c-3.14-1.25-6.36-2.11-9.6-2.62.59,3.75.71,7.6.32,11.46-.13,1.28-.31,2.54-.54,3.79,10.74,2.47,19.5,10.74,22.34,21.77h-33.07c-2.53,2.83-5.44,5.36-8.67,7.51,3.26,2.17,6.17,4.7,8.68,7.51h48.41c3.55-20.99-8.07-41.6-27.87-49.42Zm-98.66-2.62c-9.34,1.46-18.08,5.84-24.9,12.66l10.62,10.62c4.06-4.06,9.11-6.79,14.52-8.03-.95-4.98-1.04-10.14-.24-15.25Z" fill-rule="evenodd" opacity="0"/><path d="m53.35,126.92c-4.98.95-10.14,1.04-15.25.24,1.46,9.34,5.84,18.08,12.66,24.9l10.62-10.62c-4.06-4.06-6.79-9.11-8.03-14.52Zm-12.63-98.42c-1.25,3.14-2.11,6.36-2.62,9.6,3.75-.59,7.6-.71,11.46-.32,1.28.13,2.54.31,3.79.54,2.47-10.74,10.74-19.5,21.77-22.34v33.07c2.83,2.53,5.36,5.44,7.51,8.67,2.17-3.26,4.7-6.17,7.51-8.68V.63c-20.99-3.55-41.6,8.07-49.42,27.87Zm73.78-15.3l-10.62,10.62c4.06,4.06,6.79,9.11,8.03,14.52,4.98-.95,10.14-1.04,15.25-.24-1.46-9.34-5.84-18.08-12.66-24.9Zm1.2,114.28c-1.28-.13-2.54-.31-3.79-.54-2.47,10.74-10.74,19.5-21.77,22.34v-33.07c-2.83-2.53-5.36-5.44-7.51-8.67-2.17,3.26-4.7,6.17-7.51,8.68v48.41c20.99,3.55,41.6-8.07,49.42-27.87,1.25-3.14,2.11-6.36,2.62-9.6-3.75.59-7.6.71-11.46.32Z" fill-rule="evenodd" opacity="0"/><path fill="#fff" d="m126.92,111.91c-1.49-8.02-5.15-15.58-10.7-21.77-2.51-2.81-5.42-5.34-8.68-7.51,3.23-2.15,6.14-4.68,8.67-7.51,5.47-6.1,9.2-13.62,10.73-21.77.23-1.25.41-2.51.54-3.79.39-3.86.27-7.71-.32-11.46-5.11-.8-10.27-.71-15.25.24-8.02,1.49-15.58,5.15-21.77,10.7-2.81,2.51-5.34,5.42-7.51,8.68-2.15-3.23-4.68-6.14-7.51-8.67-6.1-5.47-13.62-9.2-21.77-10.73-1.25-.23-2.51-.41-3.79-.54-3.86-.39-7.71-.27-11.46.32-.8,5.11-.71,10.27.24,15.25,1.49,8.02,5.15,15.58,10.7,21.77,2.51,2.81,5.42,5.34,8.68,7.51-3.23,2.15-6.14,4.68-8.67,7.51-5.47,6.1-9.2,13.62-10.73,21.77-.23,1.25-.41,2.51-.54,3.79-.39,3.86-.27,7.71.32,11.46,5.11.8,10.27.71,15.25-.24,8.02-1.49,15.58-5.15,21.77-10.7,2.81-2.51,5.34-5.42,7.51-8.68,2.15,3.23,4.68,6.14,7.51,8.67,6.1,5.47,13.62,9.2,21.77,10.73,1.25.23,2.51.41,3.79.54,3.86.39,7.71.27,11.46-.32.8-5.11.71-10.27-.24-15.25ZM53.91,53.92c1.16.35,2.28.77,3.37,1.26,7.88,3.5,13.93,10.26,16.5,18.6-3.87-1.18-7.36-3.11-10.35-5.6-4.47-3.71-7.79-8.66-9.52-14.26Zm14.27,47.91c-3.71,4.47-8.66,7.79-14.26,9.52.35-1.16.77-2.28,1.26-3.37,3.5-7.88,10.26-13.93,18.6-16.5-1.18,3.87-3.11,7.36-5.6,10.35Zm28.9-38.4c3.71-4.47,8.66-7.79,14.26-9.52-.35,1.16-.77,2.28-1.26,3.37-3.5,7.88-10.26,13.93-18.6,16.5,1.18-3.87,3.11-7.36,5.6-10.35Zm10.9,46.65c-7.88-3.5-13.93-10.26-16.5-18.6,3.87,1.18,7.36,3.11,10.35,5.6,4.47,3.71,7.79,8.66,9.52,14.26-1.16-.35-2.28-.77-3.37-1.26Z" fill-rule="evenodd"/></svg>