<?xml version="1.0" encoding="UTF-8"?><svg id="a" xmlns="http://www.w3.org/2000/svg" viewBox="0 0 567.94 110.1"><path d="m0,107.84V21.96C0,5.56,8.57,0,26.17,0h26.02v15.94h-22.56c-5.56,0-7.22,1.5-7.22,6.77v3.61h29.63v18.2h-29.63v63.32H0Z" style="fill:#fff;"/><path d="m65.13,107.84V0h22.86v107.84h-22.86Z" style="fill:#fff;"/><path d="m144.09,107.84c-30.23,0-39.11-9.32-39.11-35.2v-10.98c0-26.02,8.87-35.35,39.11-35.35h27.22c30.38,0,39.26,9.32,39.26,35.5v10.83c0,25.87-8.87,35.2-39.26,35.2h-27.22Zm44.07-45.42c0-13.84-3.61-16.85-19.85-16.85h-21.21c-15.94,0-19.7,3.01-19.7,16.85v9.62c0,13.54,3.76,16.85,19.7,16.85h21.21c16.24,0,19.85-3.31,19.85-16.85v-9.62Z" style="fill:#fff;"/><path d="m297.81,51.74l-24.22,50.24c-2.41,4.96-6.47,8.12-12.48,8.12-6.77,0-9.93-3.16-12.03-8.12l-32.64-75.65h22.71l23.46,54.9,23.31-48.73c2.71-5.41,5.71-8.42,12.33-8.42s9.62,2.71,12.18,8.42l22.11,48.73,24.67-54.9h22.26l-34.14,75.65c-2.11,4.66-6.32,8.12-12.33,8.12s-9.93-3.46-12.18-8.12l-23.01-50.24Z" style="fill:#fff;"/><path d="m485.51,75.35v3.76c0,9.93,3.01,11.73,13.69,11.73h25.42v17h-25.42c-10.83,0-18.8-1.5-24.37-5.11-5.56,3.61-14.14,5.11-26.32,5.11h-42.71c-23.46,0-29.78-8.27-29.78-21.51v-7.67c0-13.69,5.71-21.51,28.28-21.51h58.81v-1.8c0-10.38-3.91-13.09-13.69-13.09h-21.36v-15.94h21.36c10.68,0,18.8,1.8,24.37,5.26,5.56-3.61,14.14-5.26,26.32-5.26h38.05c23.31,0,29.78,9.32,29.78,22.26v26.77h-82.42Zm-22.41-4.36h-56.4c-5.27,0-8.42,1.8-8.42,8.27v5.56c0,5.71,3.46,7.67,9.18,7.67h40.61c10.53,0,15.04-2.41,15.04-14.59v-6.92Zm82.42-20.61c0-5.41-2.41-6.77-9.18-6.77h-35.79c-11.28,0-15.04,1.2-15.04,12.94v4.36h60.01v-10.53Z" style="fill:#fff;"/></svg>